<svg width="85" height="84" viewBox="0 0 85 84" fill="none" xmlns="http://www.w3.org/2000/svg">
<rect x="0.383389" y="0.036377" width="83.8035" height="83.0933" rx="10.4167" transform="rotate(0.0690258 0.383389 0.036377)" fill="#5DE2FF"/>
<path d="M49.5902 44.8101L35.7103 44.7934L35.7136 42.0409L21.8337 42.0242L21.8133 58.883C21.813 59.1568 21.9224 59.4194 22.1174 59.6132C22.3124 59.807 22.577 59.9161 22.8531 59.9164L62.4109 59.9641C62.687 59.9644 62.9519 59.856 63.1474 59.6627C63.3428 59.4693 63.4528 59.2069 63.4532 58.9332L63.4735 42.0743L49.5935 42.0576L49.5902 44.8101Z" fill="#36A0CE"/>
<path d="M63.4871 30.7206C63.4875 30.4468 63.3781 30.1841 63.1831 29.9903C62.9881 29.7965 62.7235 29.6875 62.4474 29.6871L53.7724 29.6767L53.7782 24.8599C53.7785 24.6774 53.7056 24.5023 53.5756 24.3731C53.4456 24.2439 53.2691 24.1711 53.0851 24.1709L32.2652 24.1458C32.0811 24.1456 31.9045 24.2179 31.7742 24.3468C31.6439 24.4757 31.5706 24.6506 31.5703 24.8331L31.5645 29.6499L22.8896 29.6395C22.6135 29.6391 22.3486 29.7476 22.1531 29.9409C21.9577 30.1342 21.8477 30.3966 21.8473 30.6704L21.837 39.2718L63.4768 39.322L63.4871 30.7206ZM50.3024 29.6725L35.0345 29.6541L35.037 27.5898L50.3049 27.6082L50.3024 29.6725Z" fill="#36A0CE"/>
</svg>
