<svg width="84" height="84" viewBox="0 0 84 84" fill="none" xmlns="http://www.w3.org/2000/svg">
<rect x="0.216522" y="0.33252" width="83.0933" height="83.0933" rx="10.4167" transform="rotate(0.0690258 0.216522 0.33252)" fill="#AFC3F8"/>
<g clip-path="url(#clip0_22_364)">
<path d="M40.9688 19.493L40.9604 26.4814L43.3341 26.4843L43.3425 19.4959L40.9686 19.493L40.9688 19.493ZM31.2736 21.5815L29.3272 22.9408L33.328 28.6687L35.2733 27.3094L31.2736 21.5815ZM53.0322 21.6077L49.0188 27.326L50.9611 28.69L54.9757 22.9717L53.0325 21.6077L53.0322 21.6077ZM42.1444 28.3949C36.3376 28.3879 31.626 31.9085 31.6208 36.2589L37.5727 54.357L46.6547 54.368L52.6496 36.2842C52.6548 31.9339 47.9521 28.4019 42.145 28.3949L42.1444 28.3949ZM23.2591 30.4695L22.4454 32.7004L29.0062 35.098L29.8229 32.8682L23.259 30.4695L23.2591 30.4695ZM61.0252 30.515L54.4554 32.898L55.264 35.13L61.8338 32.7479L61.0252 30.515ZM29.4964 40.6798L22.7452 42.4819L23.3548 44.7738L30.106 42.9743L29.4965 40.6798L29.4964 40.6798ZM54.7633 40.7103L54.1486 43.0033L60.8955 44.8187L61.5102 42.5283L54.7633 40.7102L54.7633 40.7103ZM37.4387 55.6757L37.4349 58.8203L46.7817 58.8316L46.7855 55.6874L37.4387 55.6762L37.4387 55.6757ZM37.433 60.3836L37.4292 63.5282L46.7761 63.5395L46.7799 60.3953L37.433 60.3841L37.433 60.3836Z" fill="#0E697D"/>
</g>
<defs>
<clipPath id="clip0_22_364">
<rect width="44.0394" height="44.0394" fill="white" transform="translate(20.1359 19.468) rotate(0.0690258)"/>
</clipPath>
</defs>
</svg>
