<svg width="85" height="84" viewBox="0 0 85 84" fill="none" xmlns="http://www.w3.org/2000/svg">
<rect x="1.09137" y="0.629883" width="83.0933" height="83.0933" rx="10.4167" transform="rotate(0.0690258 1.09137 0.629883)" fill="#F8AFF5"/>
<g clip-path="url(#clip0_22_360)">
<path d="M57.6694 53.6699C59.6879 53.6723 61.323 52.0228 61.3254 50.0043L61.3659 31.6546C61.3683 29.6361 59.7188 27.9827 57.7003 27.9802L28.3408 27.9449C26.3223 27.9424 24.6688 29.5919 24.6664 31.6104L24.6443 49.9601C24.6418 51.9786 26.2913 53.6321 28.3098 53.6345L20.9699 53.6257L20.9655 57.2956L65.0049 57.3487L65.0093 53.6787L57.6694 53.6699ZM28.3363 31.6148L57.6959 31.6502L57.6738 49.9999L28.3142 49.9646L28.3363 31.6148Z" fill="#BE38FD"/>
</g>
<defs>
<clipPath id="clip0_22_360">
<rect width="44.0394" height="44.0394" fill="white" transform="translate(21.0097 20.5962) rotate(0.0690258)"/>
</clipPath>
</defs>
</svg>
