<svg width="84" height="85" viewBox="0 0 84 85" fill="none" xmlns="http://www.w3.org/2000/svg">
<rect x="0.882874" y="0.924805" width="83.0933" height="83.0933" rx="10.4167" transform="rotate(0.0690258 0.882874 0.924805)" fill="#E4FFAB"/>
<g clip-path="url(#clip0_22_368)">
<path d="M32.9175 30.1044C35.6713 27.7355 39.1817 26.4295 42.8143 26.4225C50.2184 26.4314 56.358 31.9438 57.0183 39.0432C61.3995 39.6678 64.8136 43.3409 64.8082 47.8439C64.8022 52.7874 60.6743 56.7212 55.6786 56.7151L31.1651 56.6856C25.4593 56.6787 20.7635 52.1756 20.7703 46.5385C20.7761 41.6859 24.2656 37.6715 28.8799 36.6587C29.2764 34.2838 30.8069 31.9185 32.9175 30.1044Z" fill="#EAEE2A"/>
</g>
<defs>
<clipPath id="clip0_22_368">
<rect width="44.0394" height="44.0394" fill="white" transform="translate(20.8012 20.8911) rotate(0.0690258)"/>
</clipPath>
</defs>
</svg>
