<svg width="32" height="33" viewBox="0 0 32 33" fill="none" xmlns="http://www.w3.org/2000/svg">
<path d="M25.2539 6.1397L7.02476 6.11774C5.98876 6.11649 4.9947 6.52685 4.26125 7.25853C3.5278 7.99021 3.11506 8.98328 3.11381 10.0193L3.09812 23.0401C3.09687 24.0761 3.50723 25.0702 4.23891 25.8036C4.97059 26.5371 5.96366 26.9498 6.99966 26.9511L25.2288 26.973C26.2648 26.9743 27.2589 26.5639 27.9923 25.8322C28.7258 25.1006 29.1385 24.1075 29.1398 23.0715L29.1555 10.0507C29.1567 9.01466 28.7464 8.02059 28.0147 7.28715C27.283 6.5537 26.2899 6.14095 25.2539 6.1397ZM25.2508 8.74387L16.7802 14.554C16.5822 14.668 16.3575 14.7279 16.129 14.7276C15.9004 14.7274 15.676 14.6669 15.4781 14.5524L7.02162 8.72191L25.2508 8.74387Z" fill="#0E697D"/>
</svg>
