<svg width="32" height="33" viewBox="0 0 32 33" fill="none" xmlns="http://www.w3.org/2000/svg">
<path d="M16.0818 2.91516C13.2338 2.91509 10.5021 4.04464 8.48583 6.05604C6.46958 8.06743 5.33345 10.7964 5.32666 13.6444C5.32045 15.9718 6.07795 18.2369 7.48296 20.0923C7.48296 20.0923 7.77546 20.4784 7.82325 20.5341L16.0488 30.2589L24.3018 20.5491C24.3448 20.4974 24.6392 20.113 24.6392 20.113L24.6402 20.1101C26.049 18.2588 26.8116 15.9966 26.811 13.6703C26.8111 10.8223 25.6815 8.09058 23.6701 6.07433C21.6587 4.05808 18.9297 2.92195 16.0818 2.91516ZM16.0641 17.5636C15.2916 17.5627 14.5366 17.3327 13.8947 16.9027C13.2529 16.4727 12.7529 15.862 12.4581 15.1479C12.1633 14.4337 12.0869 13.6482 12.2386 12.8907C12.3902 12.1331 12.7631 11.4375 13.31 10.8919C13.857 10.3462 14.5535 9.97504 15.3114 9.82523C16.0693 9.67542 16.8546 9.75373 17.568 10.0502C18.2815 10.3468 18.8909 10.8482 19.3194 11.4911C19.7478 12.134 19.976 12.8895 19.9751 13.662C19.9725 14.6977 19.5594 15.69 18.8262 16.4214C18.0931 17.1528 17.0997 17.5635 16.0641 17.5636Z" fill="#0E697D"/>
</svg>
