<svg width="26" height="26" viewBox="0 0 26 26" fill="none" xmlns="http://www.w3.org/2000/svg">
<g clip-path="url(#clip0_22_400)">
<path fill-rule="evenodd" clip-rule="evenodd" d="M3.64327 0.91684C3.91699 0.644183 4.24554 0.432812 4.60713 0.296735C4.96873 0.160657 5.35512 0.102981 5.74069 0.127527C6.12626 0.152073 6.50221 0.258281 6.84363 0.439114C7.18505 0.619946 7.48414 0.871273 7.72108 1.17644L10.5214 4.78294C11.0347 5.4445 11.2149 6.30565 11.0108 7.11791L10.152 10.5388C10.1076 10.7159 10.1098 10.9016 10.1583 11.0777C10.2068 11.2538 10.3 11.4143 10.4289 11.5438L14.2633 15.3875C14.3926 15.5169 14.5532 15.6107 14.7295 15.6596C14.9058 15.7086 15.0917 15.7111 15.2693 15.6668L18.6906 14.8162C19.0917 14.7165 19.5102 14.7092 19.9145 14.7949C20.3188 14.8807 20.6983 15.0572 21.0244 15.3112L24.6241 18.1187C25.9182 19.1281 26.0347 21.0423 24.8739 22.1987L23.2563 23.8124C22.0987 24.9672 20.3699 25.4729 18.7597 24.9038C14.6383 23.4481 10.8975 21.0832 7.8149 17.9844C4.72375 14.8947 2.36783 11.1488 0.921844 7.0245C0.358159 5.41445 0.868055 3.68537 2.0257 2.53052L3.64327 0.91684Z" fill="#0E697D"/>
</g>
<defs>
<clipPath id="clip0_22_400">
<rect width="25" height="25" fill="white" transform="translate(0.699585 0.113647) rotate(0.0690258)"/>
</clipPath>
</defs>
</svg>
